<svg width="192" height="19" viewBox="0 0 192 19" fill="none">
  <path fill-rule="evenodd" clip-rule="evenodd" d="M3.38672 0.912109C1.72986 0.912109 0.386719 2.25525 0.386719 3.91211V15.8984C0.386719 17.5553 1.72987 18.8984 3.38672 18.8984H22.2896C23.9464 18.8984 25.2896 17.5553 25.2896 15.8984V3.91211C25.2896 2.25525 23.9464 0.912109 22.2896 0.912109H3.38672ZM41.8384 4.70312C40.1815 4.70312 38.8384 6.04627 38.8384 7.70312V12.6836C38.8384 14.3404 40.1815 15.6836 41.8384 15.6836H188.53C190.187 15.6836 191.53 14.3404 191.53 12.6836V7.70312C191.53 6.04627 190.187 4.70312 188.53 4.70312H41.8384Z" fill="#EDF1FE"/>
</svg>
