<svg width="96" height="18" viewBox="0 0 96 18" fill="none">
  <path fill-rule="evenodd" clip-rule="evenodd" d="M80.8741 0.904297C79.2173 0.904297 77.8741 2.24744 77.8741 3.9043V14.4824C77.8741 16.1393 79.2173 17.4824 80.8741 17.4824H92.1368C93.7937 17.4824 95.1368 16.1393 95.1368 14.4824V3.9043C95.1368 2.24744 93.7937 0.904297 92.1368 0.904297H80.8741ZM3.79382 3.70312C2.13696 3.70312 0.793823 5.04627 0.793823 6.70312V11.6836C0.793823 13.3404 2.13696 14.6836 3.79382 14.6836H67.6025C69.2593 14.6836 70.6025 13.3404 70.6025 11.6836V6.70312C70.6025 5.04627 69.2593 3.70312 67.6025 3.70312H3.79382Z" fill="#EDF1FE"/>
</svg>
