<svg width="27" height="27" fill="none" xmlns="http://www.w3.org/2000/svg"><path d="M1.69 13.685c0 6.758 5.478 12.236 12.236 12.236 6.758 0 12.236-5.478 12.236-12.236 0-6.758-5.478-12.236-12.236-12.236C7.168 1.45 1.69 6.927 1.69 13.685Z" fill="#0085CC"/><mask id="world__a" style="mask-type:alpha" maskUnits="userSpaceOnUse" x="-2" y="5" width="30" height="20"><path fill-rule="evenodd" clip-rule="evenodd" d="M-.492 8.082c.025.033.073.043.114.032a.219.219 0 0 0 .103-.07.441.441 0 0 0 .11-.257.604.604 0 0 1-.502.083c-.034-.01-.073-.03-.076-.065-.002-.02.009-.039.02-.057a.37.37 0 0 0 .009-.016l.016-.039a.183.183 0 0 1 .032-.062c.025-.028.081-.03.092.005.035-.005.024-.062-.005-.082l-.025-.015c-.023-.013-.047-.027-.053-.052-.013-.052.062-.081.115-.071a.962.962 0 0 1 .025.005c.047.01.096.02.13-.01a.152.152 0 0 0 .027-.038c.012-.021.023-.042.045-.048.035-.01.066.027.076.061l.007.038c.004.023.008.047.02.067.022.036.069.053.112.051a.364.364 0 0 0 .123-.036c.03-.013.066-.034.063-.067-.003-.038-.052-.05-.09-.058-.037-.008-.08-.046-.058-.076a1.756 1.756 0 0 1-.016-.483c.033.013.053-.019.074-.052.02-.03.04-.061.07-.065.022-.002.04.01.06.023a.3.3 0 0 0 .02.012c.07.04.161.005.224-.046a.919.919 0 0 0 .072-.068c.034-.035.068-.07.109-.095.068-.044.17-.052.222.01.023.022.06-.01.064-.041a.216.216 0 0 0 0-.036c0-.02-.001-.04.007-.058.025-.05.1-.041.15-.015l.018.01c.044.024.092.05.138.032a.16.16 0 0 0 .052-.039.155.155 0 0 1 .027-.024c.026-.021.071-.028.09 0 .017.029-.006.06-.03.092-.023.032-.046.063-.023.088-.012-.013.114-.029.13-.023.05.017.073.058.091.105l.01.027c.029.077.043.117.157.073.005.022.007.045.01.068v.014l.414.217.033.08.254.165c-.056.093.008.234.116.253l.085-.208a.13.13 0 0 1 .148.07.21.21 0 0 0-.107.205.451.451 0 0 1 .545-.208c.06.046.15-.011.167-.079l-.009-.06c.012.019.014.04.009.06l.04.286c.022.033.074-.001.086-.039a.404.404 0 0 0 .007-.028c.008-.03.015-.061.041-.076.042-.023.095.025.096.073 0 .048-.032.09-.062.127a.11.11 0 0 0 .132-.079.92.92 0 0 0 .53.441l-.094.1.414.215c.044.023.094.046.14.03.047-.017.062-.097.015-.112l.204-.032-.228-.085c.034-.055.109-.07.17-.052a.44.44 0 0 1 .159.102l.488.422.114-.193c.069.042.108.13.093.209l.21-.236c.02-.15.256-.21.346-.087l.118.394c.07.04.157-.02.193-.091a.62.62 0 0 0 .037-.102.509.509 0 0 1 .047-.122c.041-.068.143-.112.2-.057.036.036.04.095.044.152.004.064.008.124.06.139-.067-.012-.128.054-.153.12l-.02.062a.333.333 0 0 1-.065.14c-.063.068-.165.07-.26.072l-.035.001c-.104.003-.232.044-.247.148-.006-.063-.108-.086-.14-.032-.033.055.036.133.094.108-.12.137-.268.249-.433.327a.89.89 0 0 0-.593.777.108.108 0 0 1 .108-.092.414.414 0 0 1-.015.326l.59.289c.098.047.206.107.234.212.016.063 0 .126-.016.19a.885.885 0 0 0-.02.1c-.011.098.058.224.153.196.062-.018.088-.093.087-.158a.462.462 0 0 0-.005-.065c-.004-.044-.008-.087.003-.129.024-.095.115-.156.203-.215.1-.067.198-.132.19-.244-.003-.04-.02-.076-.036-.112-.021-.045-.042-.09-.035-.137.007-.05.043-.09.078-.129l.024-.026a.53.53 0 0 0 .097-.511c.272.041.593.12.684.38.062.042.033.137.002.204-.032.068-.049.169.02.198.068.03.13-.052.161-.12.042-.087.105-.107.178-.13a.764.764 0 0 0 .087-.031c.093.24.144.495.148.753l.3.214c-.03.045-.088.05-.144.053l-.035.003c-.065.007-.14.07-.104.124.035.052.116.013.16-.031.045-.044.115-.094.162-.052-.024.035.02.09.059.075.036.055.022.131-.019.183a.385.385 0 0 1-.161.107c-.263.11-.56.134-.836.07l-.43.365c.129-.072.265-.13.406-.177.043-.014.096-.025.132.003.05.04.023.128-.034.159-.056.03-.124.02-.187.009l.17.041a.318.318 0 0 0-.036.306.458.458 0 0 1 .279.016l-.375.192a.15.15 0 0 1-.074.023c-.069-.003-.087-.123-.022-.146a.832.832 0 0 0-.307.086c-.093.055-.165.157-.152.263l-.555.38a.216.216 0 0 1-.045.22l-.067-.05c.048.126-.018.269-.113.364-.059.058-.127.103-.197.15a2.044 2.044 0 0 0-.126.088c-.106.083-.2.2-.2.334a.56.56 0 0 0 .048.194c.016.043.032.085.041.129.023.11-.03.256-.142.257l-.23-.602-.062.07-.351-.088a.095.095 0 0 0-.133.02.095.095 0 0 0 .032.131.124.124 0 0 1-.098-.01.73.73 0 0 0-.69.136c-.077.066-.111.274-.13.39l-.005.03-.005.027c-.02.113-.046.265-.011.37.076.226.408.323.612.245-.022-.05.014-.116.068-.123l.052-.15.355-.052a1.076 1.076 0 0 1-.138.41c.022.03-.01.056-.044.085-.033.027-.067.056-.051.089.014.03.058.027.092.022a.689.689 0 0 1 .385.046c.043.019.087.045.103.089.02.052-.006.105-.031.157l-.02.042a.298.298 0 0 0 .003.243c.037.075.115.13.199.131a.42.42 0 0 0 .122-.023.318.318 0 0 1 .153-.02c.083.016.137.091.18.165a.1.1 0 0 1 .016-.103.099.099 0 0 1 .12-.019c-.03-.049-.038-.115-.005-.162.034-.046.117-.052.145-.002l.302-.196.02.067-.121.047c.037.006.053.053.05.09l-.005.038a.178.178 0 0 0-.003.076c.01.037.06.067.086.04a.181.181 0 0 1 .069-.241.18.18 0 0 1 .237.077c.197.049.407.046.602-.009-.04.014-.045.073-.02.107.022.03.058.047.093.063l.012.005a.821.821 0 0 1 .336.287.639.639 0 0 0 .296.13l.104.037c.129.02.271.046.349.15a.34.34 0 0 1 .044.28 1.005 1.005 0 0 1-.121.266.421.421 0 0 1 .315-.147.42.42 0 0 1 .316.145l.025.03a.305.305 0 0 0 .075.076.31.31 0 0 0 .128.034h.004c.15.019.298.05.444.091.15.044.315.12.354.27.03.113-.025.23-.093.325a1.5 1.5 0 0 1-.07.088c-.05.061-.1.122-.134.193-.059.125-.06.264-.062.404-.001.106-.002.212-.028.314a.647.647 0 0 1-.304.395 1.275 1.275 0 0 1-.208.088 1.29 1.29 0 0 0-.192.079c-.128.068-.242.201-.214.344l.012.046a.22.22 0 0 1 .014.091c-.008.063-.06.13-.112.195a.814.814 0 0 0-.078.11c-.029.054-.063.1-.097.146a.844.844 0 0 0-.126.214l-.064.175c-.012.033-.034.073-.07.069-.025-.003-.04-.027-.054-.05l-.007-.01c-.047-.075-.136-.109-.219-.139.068.05.108.136.101.22.045-.01.094.032.091.078-.002.046-.03.052-.058.06a.119.119 0 0 0-.04.015.26.26 0 0 0-.056.054c-.018.02-.036.042-.06.058a.36.36 0 0 1-.329.042.6.6 0 0 1-.023.313l-.252-.018a.205.205 0 0 0 .033.158l.104-.02-.025.165c-.044.002-.063.058-.06.102l.003.025c.003.037.007.074-.013.103a.137.137 0 0 1-.046.037l-.03.02a.128.128 0 0 0-.032.152c.025.05.087.079.141.065l-.021.1c-.013.063-.027.132-.032.144a.85.85 0 0 1-.077.151 1.39 1.39 0 0 0-.049.088c-.074.147.04.318.148.422l.016.015c.037.035.075.07.093.118.02.055-.003.13-.06.141-.058.012-.104-.044-.14-.091a1.244 1.244 0 0 0-.413-.354.68.68 0 0 1-.158-.108c-.123-.123-.134-.314-.137-.488l-.012-.642a.312.312 0 0 0-.021-.129c-.019-.04-.06-.072-.104-.066a.728.728 0 0 0-.062-.446l-.003-.006c-.014-.03-.029-.06-.023-.091.007-.034.053-.059.076-.033.111-.24.134-.52.063-.774l.139.089c-.068-.243-.137-.49-.127-.742.003-.066.013-.136.022-.207.035-.255.071-.526-.19-.667a.997.997 0 0 0-.1-.046c-.04-.018-.081-.036-.12-.059-.179-.108-.27-.307-.357-.501a6.255 6.255 0 0 0-.048-.103.909.909 0 0 0-.194-.287 1.097 1.097 0 0 0-.232-.15c.079-.04.098-.162.035-.224a.205.205 0 0 0 .183-.137c-.049.022-.107-.023-.119-.076-.012-.052.008-.105.026-.156.018-.052.035-.107.019-.158l.186-.136a.347.347 0 0 0 .112-.113c.036-.07.02-.155.003-.232a.447.447 0 0 0-.072-.188c-.043-.054-.12-.085-.181-.053a.413.413 0 0 0-.029.017c-.026.017-.054.034-.076.03l.055.032a1.35 1.35 0 0 1-.518-.327c-.024-.024-.049-.058-.035-.09.006-.015.022-.026.037-.037.019-.014.037-.027.036-.05 0-.033-.047-.044-.08-.037l-.018.005c-.028.007-.057.015-.08 0-.019-.011-.027-.03-.035-.051a.206.206 0 0 0-.015-.032c-.036-.057-.104-.062-.175-.066-.061-.005-.124-.01-.166-.049-.023-.02-.04-.045-.057-.07a.346.346 0 0 0-.077-.088.396.396 0 0 0-.243-.077c-.031 0-.062.005-.093.01-.036.005-.071.01-.107.01a.681.681 0 0 1-.27-.082l-.438-.202a.45.45 0 0 1-.142-.09c-.039-.04-.062-.101-.04-.154a.226.226 0 0 1 .025-.045c.011-.016.023-.032.029-.05.024-.075-.042-.147-.106-.191l-.01-.007c-.06-.043-.13-.091-.137-.166a.16.16 0 0 0-.14-.158.062.062 0 0 1 .065-.054l-.116-.172c-.078-.05-.114-.14-.148-.23l-.024-.057c-.044-.105-.136-.214-.247-.194.123.292.26.578.409.858-.03-.002-.043.04-.03.066.01.018.024.03.04.043l.022.02c.02.022.034.058.014.08-.029.03-.078-.004-.104-.036l-.205-.251c.056-.004.072-.089.038-.134-.03-.038-.076-.055-.122-.072l-.024-.01c-.053-.02-.11-.055-.117-.111l.138.012-.221-.566c-.041-.106-.094-.223-.2-.262a.43.43 0 0 0-.026-.008.15.15 0 0 1-.065-.03.154.154 0 0 1-.035-.079l-.089-.37a1.97 1.97 0 0 1-.068-.415c-.003-.18.024-.42.105-.582.102-.208.19-.398.21-.633a.173.173 0 0 1 .13.143.603.603 0 0 0 .052-.176 3.08 3.08 0 0 1-.363-.711 6.142 6.142 0 0 1-.126-.417l-.133-.478a.139.139 0 0 1-.076-.146.139.139 0 0 1 .122-.11c.036-.012.018-.07-.017-.084-.02-.007-.04-.007-.06-.007-.017 0-.034 0-.05-.004-.078-.02-.099-.104-.12-.187a.318.318 0 0 0-.458-.244l-.16-.231-.094-.013a.391.391 0 0 1-.447.256l.133-.123c-.04-.076.027-.184.113-.181l.03.003c.025.004.05.008.07-.005.039-.023.027-.09-.013-.11-.04-.02-.09-.004-.125.025a.388.388 0 0 0-.063.074l-.022.03a.52.52 0 0 1-.333.196l.045.094-.373.249c-.294.195-.605.397-.957.425-.072.005-.17-.025-.16-.096.445-.062.86-.318 1.116-.687l-.146.07-.005-.068a.596.596 0 0 1-.34-.043.356.356 0 0 0 .16-.311.08.08 0 0 1-.081.061c-.048-.004-.085-.046-.098-.093a.356.356 0 0 1 0-.142c.004-.027.038-.014.076.002.048.019.102.04.112-.011.005-.027-.008-.054-.022-.077l-.002-.003c-.014-.023-.028-.046-.027-.073 0-.04.035-.07.068-.092l.01-.006c.03-.02.062-.041.075-.075a.18.18 0 0 0 .01-.041.121.121 0 0 1 .017-.056c.02-.027.054-.031.09-.035.025-.003.05-.006.07-.016a.182.182 0 0 0 .053-.047.2.2 0 0 1 .032-.033c.03-.026.083-.033.1.002l-.02-.014Zm4.475-.916c-.007.048-.063.067-.11.077-.013.003-.027.006-.038-.002-.013-.009-.014-.026-.014-.042l-.002-.176a.088.088 0 0 1-.04-.004c-.012-.005-.022-.019-.02-.032.003-.01.012-.016.02-.022l.124-.092c.027-.02.058-.048.053-.082l.068.002c-.022-.026-.007-.068.02-.088.018-.015.04-.022.062-.03a.47.47 0 0 0 .03-.011c.031-.014.062-.039.063-.073 0-.011-.003-.022-.006-.034-.005-.017-.009-.033-.002-.049.01-.024.043-.029.07-.03l.092-.005a.517.517 0 0 1 .088 0 .256.256 0 0 1 .2.152.028.028 0 0 0-.012.038.028.028 0 0 0 .038.01c.01-.007.014-.018.019-.03.004-.012.009-.023.019-.03.025-.015.053.018.055.046 0 .011 0 .023-.002.034-.002.018-.004.035.001.052l.008.018c.006.01.012.022.01.034-.003.03-.042.039-.072.042a.771.771 0 0 0-.251.065c-.059.027-.114.06-.169.094a.695.695 0 0 0-.093.065.697.697 0 0 0-.105.124.056.056 0 0 1-.02.02c-.021.01-.041-.01-.061-.028-.02-.02-.04-.038-.061-.026l.038.013Zm1.473-.215c-.028.01-.052.038-.044.066l.023.022c.02.028.019.064.018.098 0 .015 0 .032.01.042.018.018.049.005.063-.015a.162.162 0 0 0 .017-.032.164.164 0 0 1 .017-.033.18.18 0 0 1 .02-.022c.013-.013.027-.026.03-.044.003-.027-.018-.05-.04-.064a.134.134 0 0 0-.114-.018Zm-.374.549c-.01-.006-.005-.022.004-.028a.07.07 0 0 1 .014-.006.046.046 0 0 0 .017-.009c.009-.006.013-.018.016-.028.038-.12.076-.237.121-.356.007-.018.021-.04.04-.036.007.002.012.006.017.01l.012.01c.009.004.018.003.028.003h.017c.027.004.047.03.053.058a.203.203 0 0 1-.007.083l-.034.158c-.011.05-.022.1-.044.147a.698.698 0 0 1-.023.045c-.016.028-.032.056-.04.087-.011.048.002.107.047.126l.05-.022a.187.187 0 0 0-.007.089c.006.03.033.056.063.053l.006.026a.147.147 0 0 1-.005.082c-.007.02-.022.042-.044.044-.018.002-.035-.016-.033-.032a.024.024 0 0 1-.025.008.024.024 0 0 1-.012-.034l-.068.034c.005.015-.012.03-.027.028-.015-.003-.026-.018-.029-.033a.112.112 0 0 1 .005-.045.097.097 0 0 0-.026.113l.08-.008c.026.031.002.082-.035.098-.037.016-.08.007-.118-.002l-.167-.037.077-.026a.14.14 0 0 1-.11-.088l.124.041c.013.004.03.007.037-.003.01-.015-.009-.032-.024-.04-.05-.025-.108-.05-.158-.027a.183.183 0 0 0-.035.023l-.022.016a.29.29 0 0 1-.077.032l-.138.04c-.095.029-.2.057-.292.016-.023-.01-.045-.028-.05-.053a.089.089 0 0 1 .004-.041l.001-.002c.012-.043.027-.096-.005-.126-.015-.015-.037-.018-.058-.022a.189.189 0 0 1-.048-.013c-.04-.022-.05-.073-.057-.118-.007-.044-.01-.095.02-.125.036-.036.096-.023.144-.008l.382.118a.195.195 0 0 1-.04-.069c-.013-.03-.023-.056-.063-.074-.04-.019-.103-.028-.165-.037a.727.727 0 0 1-.156-.033.14.14 0 0 1-.068-.052c-.015-.024-.015-.06.006-.08a.1.1 0 0 1 .053-.021c.071-.012.142-.02.214-.022l-.005-.028.042-.001c-.03-.03-.08-.02-.122-.01-.041.01-.096.01-.114-.028l.044-.023a.05.05 0 0 1-.052-.018.05.05 0 0 1-.002-.056.098.098 0 0 1 .043-.031.2.2 0 0 0 .025-.014.188.188 0 0 0 .044-.049.2.2 0 0 1 .035-.042.225.225 0 0 1 .083-.04l.225-.07c.038-.012.086-.021.112.008.02.021.017.055.004.08a.21.21 0 0 1-.059.06c.006.017.03.022.046.012a.1.1 0 0 0 .033-.043c.007-.017.016-.035.032-.044a.063.063 0 0 1 .061.004c.04.022.061.075.047.119a.105.105 0 0 1-.108.07c.068.018.14.02.209.004l-.032-.042.043-.014a.113.113 0 0 1-.018-.043c-.002-.016.004-.034.019-.04.014-.007.032 0 .041.012.01.013.014.028.016.044a.506.506 0 0 1-.04.22l-.05.149.056.022Zm.403.763a.015.015 0 0 1-.007.004c-.01.002-.02-.004-.026-.013-.014-.02-.003-.052.02-.06a.081.081 0 0 1 .035-.002c.013.001.026.002.038-.004.015-.007.022-.022.03-.037.007-.016.015-.032.03-.038l.004-.002h.002c.004-.002.009-.003.012-.006.006-.005.007-.012.009-.02v-.003l.002-.005a.042.042 0 0 1 .029-.028.036.036 0 0 1 .037.014c.006.008.007.017.008.027a.086.086 0 0 0 .005.023c.005.012.015.02.025.03l.01.008c.012.011.022.03.015.045a.045.045 0 0 1-.01.014c-.005.006-.01.012-.01.02-.001.009.006.016.014.022l.006.004a.06.06 0 0 1 .016.013c.007.01.008.023.009.035 0 .012 0 .025-.008.034-.008.008-.02.009-.032.01l-.095.003c-.013 0-.027 0-.038-.006A.074.074 0 0 1 5.6 8.33c-.007-.01-.015-.018-.026-.018a.045.045 0 0 0-.022.008c-.008.004-.016.01-.024.007-.01-.002-.015-.012-.02-.02v-.001c-.006-.01-.014-.019-.024-.017l.002-.026Zm.193-.847a.03.03 0 0 1-.039-.007.03.03 0 0 1 .002-.039l.003-.002.006-.006c.003-.005.002-.01.002-.017l-.003-.049v-.028a.032.032 0 0 1 .017-.022.05.05 0 0 1 .012-.003c.007-.001.013-.002.017-.007.004-.003.006-.009.008-.014a.05.05 0 0 1 .004-.01.025.025 0 0 1 .023-.013c.009 0 .018.007.021.016a.05.05 0 0 1 .003.016v.011c.002.01.008.019.013.027l.037.06c.002.002.003.004.006.005.005.002.01-.006.01-.012l.002-.007a.137.137 0 0 1 .007-.026.041.041 0 0 1 .022-.024c.006-.002.012-.002.018-.002l.01-.001c.01-.002.02-.007.021-.017a.02.02 0 0 0-.012-.018c-.004-.003-.009-.004-.013-.005a.064.064 0 0 1-.043-.04.11.11 0 0 1-.005-.053c0-.005.002-.01.006-.013a.012.012 0 0 1 .014 0 .038.038 0 0 1 .01.01l.02.023c.005.005.011.011.018.01.005-.002.008-.008.008-.014 0-.005-.002-.01-.004-.016a.072.072 0 0 1 .014-.064c.016-.02.03-.015.05-.008l.011.003a.025.025 0 0 1 .023-.027c.014 0 .026.014.023.028a.178.178 0 0 1 .006.005l.004.004a.084.084 0 0 0 .026.021c.015.006.036-.001.037-.017a.062.062 0 0 1-.026-.018c-.006-.009-.006-.023.002-.029.009-.006.019-.002.03.002l.016.005c.011.001.022-.004.031-.008a.06.06 0 0 1 .031-.009c.011.001.022.011.02.022-.002.01-.014.014-.026.017l-.016.005a.061.061 0 0 0-.026.029.093.093 0 0 1 .063.012c.014.008.026.025.019.039l-.01.01-.005.005c-.005.006-.008.015-.003.02a.02.02 0 0 1-.025-.013c-.016-.004-.033.013-.029.029l.024.01c.03.017-.031.037-.083.053-.04.013-.073.024-.056.03a.048.048 0 0 1 .05.013.077.077 0 0 1 .02.05.107.107 0 0 1-.017.064l.027-.009c.015.026.006.06-.01.083a.262.262 0 0 1-.047.047.754.754 0 0 0-.017.015c-.004.003-.008.008-.007.012s.004.006.007.008l.006.005c.004.008-.002.017-.008.023-.03.03-.07.05-.111.055a.068.068 0 0 1-.037-.003c-.012-.006-.021-.017-.02-.03l.003-.01c.002-.005.004-.01.002-.016-.005-.013-.027-.008-.03.005-.005.013.002.026.009.037v.002c.008.01.015.022.014.035-.001.019-.02.03-.037.04-.01.005-.023.01-.033.005-.008-.004-.011-.013-.014-.02-.014-.04-.025-.08-.037-.12l-.034-.113-.016-.054-.01.007Zm.212.51c0 .005-.008.01-.012.007l-.017.018c-.004-.013-.023-.016-.034-.009-.012.008-.017.022-.02.035-.003.02 0 .04.002.06l.003.024a.154.154 0 0 0 .012.052c.01.02.03.035.048.049l.094.07c.005.003.01.007.016.008.006 0 .013-.002.015-.008l.001-.006V8.22c.002-.009.014-.012.022-.01l.014.005.011.005c.009.003.02.001.024-.007L6.056 8.2c.006-.013.02-.022.033-.028l.007-.004a.08.08 0 0 0 .03-.017c.012-.01.018-.027.01-.04l-.002-.003a.02.02 0 0 1-.004-.01c-.001-.008.01-.014.02-.012.006.002.01.007.016.011a.14.14 0 0 0 .005.005c.007.005.018.01.025.005.01-.006.01-.02.006-.03l-.004-.007a.048.048 0 0 1-.006-.022c0-.005.002-.009.004-.013a.062.062 0 0 0 .003-.01.061.061 0 0 0-.009-.035.18.18 0 0 1-.005-.013c-.012-.033-.001-.068.01-.103a.924.924 0 0 0 .005-.02c.01-.035.014-.076-.007-.105l-.003-.004c-.007-.01-.016-.02-.01-.03 0-.002.002-.004.004-.006a.035.035 0 0 0 .004-.005c.008-.013-.002-.03-.012-.042-.013-.015-.027-.032-.047-.035-.021-.004-.04.007-.055.02a.413.413 0 0 1-.007.006.116.116 0 0 0-.032.033.066.066 0 0 0-.005.028v.01c-.002.014-.008.029-.02.032-.011.004-.021-.002-.032-.008a.064.064 0 0 0-.024-.01.04.04 0 0 0-.03.013.127.127 0 0 0-.019.024l-.002.004a.698.698 0 0 1-.008.012c-.006.009-.012.017-.017.027a.31.31 0 0 0-.016.04c-.005.014-.01.033.001.043a.04.04 0 0 0 .01.008l.005.002c.006.003.01.008.01.014Z" fill="#42A22B"/><path fill-rule="evenodd" clip-rule="evenodd" d="M24.723 10.225c.015-.03-.023-.063-.057-.068a.323.323 0 0 0-.025-.003c-.027-.003-.055-.005-.073-.025-.04-.042.006-.106.045-.148a.823.823 0 0 0 .218-.539v-.055c0-.116 0-.24.09-.307.05-.037.116-.042.178-.047l.344-.023-.027-.134c.096 0 .192.014.284.04-.05.007-.062.086-.023.119.039.032.1.022.14-.01.071-.056.084-.16.071-.249a1.17 1.17 0 0 0-.023-.106c-.012-.053-.025-.106-.027-.16-.003-.09.038-.192.124-.22.116-.039.223.072.295.17a.313.313 0 0 0 .014-.34l-.01-.016c-.017-.025-.033-.05-.033-.08.001-.054.065-.09.117-.078.053.011.092.056.117.104.088.165.048.367.006.55l-.11.472c-.038-.02-.06.046-.055.089.032.253.067.514.198.732.042.069.092.133.143.197.095.12.189.24.22.388a.343.343 0 0 0 .038-.405l.044-.02.072.064c.035-.036.021-.096-.005-.14l-.02-.03c-.021-.032-.042-.064-.046-.102-.005-.05.047-.106.09-.08l-.101-.433a1.375 1.375 0 0 0-.11-.334 1.417 1.417 0 0 0-.04-.068.714.714 0 0 1-.067-.132.363.363 0 0 1-.005-.225l.06-.135.121.098a.171.171 0 0 1 .07-.175.172.172 0 0 1 .189.002l.01.007c.016.012.033.025.053.023.047-.005.043-.075.03-.12a.545.545 0 0 1 .078-.449.545.545 0 0 1 .393-.228c-.164-.199-.362-.415-.62-.42-.044 0-.105-.008-.108-.052-.002-.033.035-.055.068-.056.018 0 .035.004.052.008a.35.35 0 0 0 .045.007c.107.006.182-.121.165-.227-.017-.106-.093-.192-.166-.27l.603.03c.03.002.069-.002.08-.03.008-.026-.012-.05-.03-.07a1.24 1.24 0 0 0-.052-.048c-.075-.068-.147-.135-.112-.241.047-.14.064-.22-.102-.27l-.149-.047c-.103-.031-.093.078-.085.145.007.062.005.173-.101.096a.291.291 0 0 1-.05-.053l-.017-.019-.007-.008c-.087-.095-.223-.122-.35-.144-.288-.05-.581-.1-.87-.063a.294.294 0 0 0-.138.045c-.04.028-.066.081-.049.127.01.027.034.048.056.069.03.026.058.052.056.09-.003.055-.076.082-.128.062a.285.285 0 0 1-.107-.092l-.014-.017c-.036-.042-.083-.083-.138-.08-.046 0-.083.031-.12.06l-.006.005a1.09 1.09 0 0 1-.566.231c.014-.108-.064-.214-.164-.256a.426.426 0 0 0-.32.012c-.1.04-.189.106-.276.171l-.02-.1-.102-.03-.036.07c0-.057-.076-.097-.122-.065a.097.097 0 0 0-.107-.045.065.065 0 0 1 .062-.065.413.413 0 0 0-.283-.063l.023.206-.07-.061-.06.193a.208.208 0 0 1-.006-.243c-.153-.031-.337-.053-.443.062a.455.455 0 0 0-.078.14c.018-.043.32.157.13.274-.053.032-.077.006-.104-.025a.193.193 0 0 0-.044-.04c-.072-.043-.137.001-.199.044l-.01.007c-.061.04-.169.053-.187-.018a.466.466 0 0 0 .019.291 5.07 5.07 0 0 1-.335-.164.13.13 0 0 0 .045-.187c-.044-.059-.144-.061-.192-.005 0-.067-.048-.128-.108-.159a.399.399 0 0 0-.195-.035c-.063.001-.13.011-.173.056-.043.045-.04.134.018.157l-.39.093.02-.103-.394.011-.013.106a.39.39 0 0 0-.293-.079.491.491 0 0 1-.262.471 4.92 4.92 0 0 0 .244-.945.518.518 0 0 1-.193-.204c-.053.052-.14.012-.203-.027-.062-.04-.153-.074-.2-.017-.02.023-.023.054-.027.085a.522.522 0 0 1-.004.029c-.006.039-.033.083-.073.08a.386.386 0 0 1-.047-.205l-.164.007c.027-.068-.039-.15-.113-.151-.073-.001-.138.062-.153.134a.271.271 0 0 0 .052.208c.043.06.1.108.158.154l-.225-.009.078.15a.415.415 0 0 0-.253-.036c-.152.031-.263.16-.361.28-.075.093-.154.208-.115.32a.161.161 0 0 1 .139.12.161.161 0 0 1-.072.17c.02-.062-.046-.125-.111-.124-.066 0-.122.044-.168.09l-.023.024c-.039.039-.077.078-.127.1-.024.08.029.167.1.213a.653.653 0 0 0 .176.071l.058.018c.08.026.162.067.202.141.04.074.014.186-.067.21l-.048-.016c-.017-.135-.163-.207-.29-.255a.31.31 0 0 0-.128-.029c-.045.003-.09.03-.1.074l-.049.017c.03.014.063.03.08.06.017.028.008.074-.025.083-.019.005-.039-.004-.055-.015a.326.326 0 0 1-.147-.211c-.065.173.029.361.12.522.039.069.086.143.162.162a.293.293 0 0 0 .098.002.768.768 0 0 1 .038-.003c.046-.002.098.008.123.047.025.038-.004.104-.049.096a.09.09 0 0 1-.03-.015c-.01-.006-.02-.012-.03-.015-.036-.009-.07.026-.076.062-.005.029.001.057.007.086l.005.022a.24.24 0 0 1-.028.182c-.037.052-.113.078-.166.044-.056-.035-.063-.11-.069-.179l-.002-.018c-.01-.113-.049-.221-.087-.329l-.23-.644c-.016-.047-.044-.102-.093-.101-.05 0-.078.058-.093.106l-.08.258a.612.612 0 0 0-.04.216c.004.074.041.15.108.18.02.01.041.014.063.019.018.004.037.008.055.015.038.015.073.052.064.092-.014.056-.092.057-.148.046l-.709-.143.187.255c-.015-.02-.141-.003-.196.005l-.021.002a1.39 1.39 0 0 0-.282.06.826.826 0 0 0-.314.135.232.232 0 0 0-.044.044.28.28 0 0 0-.03.057.31.31 0 0 1-.027.051.163.163 0 0 1-.126.072.163.163 0 0 1-.132-.06.055.055 0 0 1 .046-.03c-.017-.003-.013-.03.001-.04a.097.097 0 0 1 .02-.009.077.077 0 0 0 .025-.013c.02-.018.016-.05.003-.074a.173.173 0 0 0-.13-.079.512.512 0 0 0-.156.01c.002.027.028.037.054.048l.029.013c.037.022.053.069.05.111a.349.349 0 0 1-.039.122c.035-.002.065.03.074.065a.235.235 0 0 1-.007.105c-.018.012-.04.003-.062-.007a.323.323 0 0 0-.016-.007c-.042-.016-.09-.003-.129.022a.431.431 0 0 0-.095.096c-.023.03-.045.075-.017.1a.072.072 0 0 0 .02.01.09.09 0 0 1 .016.01c.029.02.018.072-.014.09-.032.017-.072.007-.103-.01a.411.411 0 0 1-.048-.034c-.013-.01-.026-.021-.04-.03-.031-.019-.07-.03-.103-.017.028.016.02.068-.011.074a.106.106 0 0 0 .11.065l.008-.001.007-.002c.019-.003.038-.007.052.004.018.015.011.047-.008.06-.02.014-.045.014-.068.01a.32.32 0 0 1-.264-.278.221.221 0 0 0-.02-.077c-.018-.032-.061-.055-.091-.034l-.005-.05-.045-.007-.009-.053-.038-.033.151.087.112.012a.509.509 0 0 0 .196.042.308.308 0 0 0 .189-.052c.053-.04.087-.11.071-.174-.018-.075-.092-.12-.16-.157l-.4-.221-.023.032a.486.486 0 0 1-.258-.044c-.008-.003-.016-.008-.018-.017-.004-.015.016-.025.031-.021a.094.094 0 0 1 .023.01.081.081 0 0 0 .018.01c.014.006.036 0 .037-.014a.028.028 0 0 0-.01-.021.102.102 0 0 0-.142 0l-.01.011a.067.067 0 0 1-.026.024c-.026.012-.05-.006-.075-.024-.023-.016-.046-.033-.072-.028.038-.008.123-.043.13-.088.008-.06-.073-.062-.112-.051a.532.532 0 0 0-.04.013.248.248 0 0 1-.083.02c-.025 0-.048-.008-.072-.015a.383.383 0 0 0-.047-.013c-.102-.018-.198.048-.281.11l-.318.236c-.067.05-.136.101-.19.166-.052.06-.09.133-.128.204l-.001.001-.16.302c-.04.074-.08.15-.135.212a1.074 1.074 0 0 1-.166.143c-.042.032-.084.064-.123.1-.092.086-.164.213-.129.334l.162-.015a.164.164 0 0 0-.108.197l-.054.05a.133.133 0 0 1 .064.021c.018.014.027.042.014.06a.064.064 0 0 1-.022.016.1.1 0 0 0-.016.01c-.024.02-.022.061-.003.086.02.024.052.036.083.042a.326.326 0 0 0 .369-.28.105.105 0 0 0 .072.102.84.84 0 0 0 .091.348c.048 0 .064.063.067.11.003.048.023.11.07.107.05-.003.058-.075.05-.125.08.04.191-.025.197-.115a.328.328 0 0 0-.004-.059c-.004-.04-.01-.08.017-.109.064-.107.12-.218.168-.334-.079-.006-.143-.071-.17-.146a.523.523 0 0 1-.016-.234.161.161 0 0 1 .024-.082.186.186 0 0 1 .07-.046.313.313 0 0 0 .182-.205c.022.002.04-.02.045-.041a.155.155 0 0 0 .001-.043V9.46a.158.158 0 0 1 .145-.149c.077-.003.15.06.158.137-.002-.012-.11.062-.118.071-.023.027-.037.058-.052.09l-.016.033a.463.463 0 0 1-.05.074c-.039.05-.077.099-.063.17.005.023.015.045.024.068a.26.26 0 0 1 .027.088.264.264 0 0 1-.007.064.332.332 0 0 0-.008.052c0 .04.021.086.06.088.05.037.12.027.181.017l.383-.067.107.095a.09.09 0 0 1-.102.023l-.013.052a.506.506 0 0 0-.258-.032c-.085.02-.163.103-.142.189a.04.04 0 0 1 .038-.012l.011.045.06-.006c.003.04.007.082-.012.117-.018.036-.067.059-.1.036a.126.126 0 0 1-.02-.02.085.085 0 0 0-.024-.024c-.04-.022-.083.027-.1.07a.517.517 0 0 0-.022.261.23.23 0 0 1 .173.099l-.358.044c-.02.003-.046.004-.058-.014-.012-.017.018-.045.028-.026.022-.023 0-.064-.031-.07-.031-.006-.061.01-.087.028a.782.782 0 0 0-.184.173c-.013.018-.027.036-.048.041-.03.007-.057-.017-.073-.042a.076.076 0 0 1-.012-.019.148.148 0 0 0-.043-.052c-.032-.021-.076-.014-.113-.002l-.014.004c-.033.01-.067.022-.1.014-.04-.008-.072-.053-.051-.086-.03.004-.056-.033-.042-.059.044.05.113.08.18.075a.342.342 0 0 1-.123-.394.26.26 0 0 0-.175.301l.012.04a.346.346 0 0 1 .016.057c.005.033-.002.071-.028.092l.06.036c-.127.013-.272.035-.345.141a.437.437 0 0 0-.043.09c-.008.018-.015.037-.024.055-.02.04-.051.082-.096.095l-.02.004a.1.1 0 0 0-.025.005.114.114 0 0 0-.053.05l-.016.03a.29.29 0 0 1-.027.047c-.018.023-.046.041-.075.037l-.008-.002c-.01-.002-.02-.004-.027.002-.008.005-.009.015-.01.025v.01c-.003.021-.021.036-.04.043a.158.158 0 0 1-.061.005h-.001a.065.065 0 0 0-.068-.055c-.01.014 0 .033.01.046.01.013.022.031.014.046-.006.01-.017.013-.028.015a.251.251 0 0 1-.099 0l-.009-.002a.116.116 0 0 0-.038-.005c-.012.002-.023.007-.034.012l-.007.003-.008.004a.28.28 0 0 1-.02.007.107.107 0 0 0-.039.018c-.016.014-.021.044-.003.054a.046.046 0 0 0 .012.004c.005.001.01.002.014.005a.031.031 0 0 1 .011.014l.002.003.002.003c.018.026.052.03.086.033.033.003.067.007.085.033.006.009.009.02.012.03l.002.01a.335.335 0 0 0 .04.075l.079.126a.026.026 0 0 0-.023-.003c-.014.006-.021.02-.022.035a.127.127 0 0 0 .002.034l.002.01c.006.045.001.122-.033.158-.014.014-.037.013-.057.012l-.013-.001a3.735 3.735 0 0 1-.528-.042c.002.022-.019.038-.04.046a.469.469 0 0 1-.012.005c-.016.006-.033.012-.044.026-.02.024-.01.06 0 .091l.002.006c.046.156-.021.322-.087.471.017.012.04.013.058.004l-.001.03.024-.004a.34.34 0 0 1-.021.176l.143-.015c.029-.003.06-.005.083.012.018.012.027.034.036.055.01.022.019.044.039.056.028.017.066.006.093-.014a.372.372 0 0 0 .032-.027c.014-.012.029-.025.046-.035.028-.017.07-.02.091.005l.043-.012.024.02.02-.039c.003.017.023.025.04.02a.093.093 0 0 0 .04-.027c.047-.047.091-.095.133-.146.014-.017.028-.034.029-.056 0-.014-.005-.028-.01-.042l-.007-.02c-.017-.057.015-.118.057-.16.025-.024.054-.044.083-.064a.9.9 0 0 0 .06-.044c.046-.038.087-.091.085-.151-.02-.03-.005-.074.023-.096a.14.14 0 0 1 .103-.02.249.249 0 0 1 .14.068.703.703 0 0 0 .221-.166.078.078 0 0 1 .072.028c.042-.012.088.008.119.04a.253.253 0 0 1 .046.075l.02.04a.23.23 0 0 0 .033.04l.015.018.052.061a.424.424 0 0 0 .095.092.43.43 0 0 0 .071.033l.028.011c.06.025.114.06.16.105.024.022.047.048.052.08a.172.172 0 0 1-.02.088c-.013.032-.026.064-.017.096l.038-.006a.45.45 0 0 0 .073-.09.16.16 0 0 0 .02-.112.24.24 0 0 0-.01-.03.201.201 0 0 1-.01-.035c-.004-.023.003-.05.024-.06.019-.007.041.003.056.016l.018.018c.008.01.016.019.027.026.02-.012.022-.044.008-.063-.014-.02-.038-.03-.06-.039l-.126-.051c-.02-.008-.042-.018-.05-.038-.008-.018.005-.043.022-.043-.067-.011-.14-.027-.184-.078-.015-.018-.025-.038-.036-.059a.333.333 0 0 0-.028-.048.342.342 0 0 0-.063-.063c-.029-.026-.058-.05-.075-.085-.015-.029-.018-.067.004-.091a.11.11 0 0 1 .027-.02l.042-.025c.012-.007.03-.013.037-.002.005.007.003.016.002.024v.003a.095.095 0 0 0 .024.082c.009.009.023.016.032.009.008-.006.008-.015.008-.025l.001-.012c.005-.027.048-.036.063-.013.016.023-.009.06-.036.053.008.033.049.054.08.04a.032.032 0 0 1-.012.041c.018.024.047.035.075.045.031.012.063.024.08.051a.17.17 0 0 1 .011.027c.008.019.015.037.034.044.013.004.026 0 .04-.003a.079.079 0 0 1 .035-.004c.017.003.027.016.039.03a.13.13 0 0 0 .024.023c.01.006.02.009.03.012a.094.094 0 0 1 .036.016c.023.02.022.053.02.084v.018a.21.21 0 0 0 .058.145l.004.004c.008.008.016.016.02.027.003.012-.003.029-.016.03-.012.002-.02-.02-.008-.024-.01-.01-.03.005-.027.02.002.014.018.023.032.026l.004.001.005.001.007.001c.01.002.019.003.028.007a.053.053 0 0 1 .024.069l-.003.005-.003.005a.053.053 0 0 0-.01.02c-.002.012.004.022.01.033l.003.006c.006.013.008.03-.003.04h.034a.092.092 0 0 1-.014-.043c0-.016.01-.032.026-.033.015-.001.028.02.017.03.011-.005.023-.01.036-.007.012.003.02.02.012.028-.005.007-.015.007-.024.008-.011 0-.022.002-.023.011 0 .011.013.016.024.019.023.006.017.017.01.03a.052.052 0 0 0-.008.016c0 .01.002.02.01.024l.011.004c.005.001.01.003.013.006.004.003.005.008.007.013.001.004.002.009.006.012.003.004.007.005.011.006a.026.026 0 0 1 .012.007c.004.005.005.012.005.019 0 .008.001.016.008.02.007.002.014-.002.018-.007a.042.042 0 0 0 .005-.02.06.06 0 0 1 .047.033c-.002-.01.005-.023.015-.025.01-.003.022.006.021.016.006-.012.004-.027-.002-.04l-.011-.022a.223.223 0 0 1-.009-.015.041.041 0 0 1-.006-.024c.001-.01.008-.017.017-.017.006 0 .011.005.016.009l.005.004c.007.005.019.007.022-.001.002-.006-.002-.01-.006-.016-.004-.005-.008-.01-.006-.016.002-.005.008-.008.014-.007h.007c.004.001.007.002.011.001.007 0 .013-.006.018-.011l.01-.01a.079.079 0 0 0 .01-.014c.008-.013.007-.03.001-.044a.148.148 0 0 0-.026-.037l-.046-.053a.27.27 0 0 1-.036-.048l-.004-.008c-.006-.011-.012-.023-.022-.03a.102.102 0 0 0-.008-.004c-.006-.003-.012-.006-.014-.012-.003-.005-.002-.01-.001-.017l.001-.014c.001-.016.003-.035.01-.045.01-.012.037-.017.058-.02l.019-.004.181-.047c.02.02.056.005.07-.02a.16.16 0 0 0 .014-.048.24.24 0 0 1 .008-.032c.008-.026.032-.053.06-.046a.091.091 0 0 1 .025.011c.013.008.026.016.039.009.016-.009.013-.033.003-.048a.184.184 0 0 0-.01-.013c-.007-.01-.015-.021-.017-.034-.004-.027.02-.044.044-.06.02-.015.042-.03.048-.053.005-.02-.002-.038-.009-.057-.008-.021-.016-.042-.007-.061.007-.017.024-.027.041-.036a.227.227 0 0 0 .021-.012.198.198 0 0 0 .051-.063l.102-.168c.013-.021.037-.047.06-.034.016.009.015.029.014.05 0 .017-.002.035.009.048.014.017.037.013.06.01.023-.003.045-.006.06.009.014.014.01.038 0 .054a.126.126 0 0 1-.047.034c.034-.016.081.011.084.05v.018c-.002.016-.003.033.01.042.012.01.03.003.045-.005l.039-.02a.37.37 0 0 1 .126-.054.354.354 0 0 1 .206.042 1.3 1.3 0 0 1 .342.23c.029.049.058.108.033.158-.024.048-.084.062-.137.067a.99.99 0 0 1-.359-.03.057.057 0 0 0-.027-.058.057.057 0 0 0-.064.006.391.391 0 0 0-.377.047l-.011.009c-.019.014-.038.03-.06.035a.183.183 0 0 1-.07.001c-.033-.003-.064-.007-.09.012a.06.06 0 0 1 .052.056l-.192.034c-.012.003-.026.004-.034-.005-.01-.013.002-.033.017-.038.01-.003.02-.003.03-.003h.019a.077.077 0 0 0 .066-.059.077.077 0 0 0-.036-.08.42.42 0 0 0-.193.157c.012-.016.04.003.04.023 0 .016-.009.03-.018.044a.299.299 0 0 0-.007.011c-.01.018-.016.044 0 .057a.069.069 0 0 1 .076.026.069.069 0 0 1-.003.08l-.04.005.015.125c.026-.016.061-.007.084.013.023.02.036.048.049.076l-.035.037v.001c0 .02.029.023.046.014l.018-.013a.081.081 0 0 1 .03-.018c.029-.006.05.016.071.04.018.018.037.038.06.043.033.005.057-.018.082-.041.019-.018.038-.036.062-.043.04-.012.077.013.114.038.034.024.068.047.107.043.028-.002.052-.02.077-.037a.16.16 0 0 1 .075-.037.135.135 0 0 1 .04.002c.011.001.022.003.033.002.025 0 .052-.016.052-.04a.11.11 0 0 0 .002.015c.002.01.003.02-.002.032a.068.068 0 0 1-.037.038.036.036 0 0 0 .013.019c.004.004.009.008.012.013.008.016.001.04-.005.056l-.01.02a.116.116 0 0 0-.014.035v.043a.273.273 0 0 1-.015.052c-.005.013-.01.026-.012.04-.007.028-.012.058-.017.087l-.008.043c-.01.053-.026.113-.074.137a.166.166 0 0 1-.08.011 2.79 2.79 0 0 1-.141-.01h-.005a.356.356 0 0 0-.08-.002.381.381 0 0 0-.074.02l-.042.013a.334.334 0 0 1-.258-.038.222.222 0 0 0-.081-.033.215.215 0 0 0-.042.001c-.01 0-.021.002-.032.001a.31.31 0 0 1-.087-.02l-.177-.06c-.009-.002-.02-.006-.023-.015-.005-.01.003-.014.011-.018.008-.005.017-.01.015-.02a.031.031 0 0 0-.014-.021.054.054 0 0 0-.052-.002.074.074 0 0 0-.02.016.067.067 0 0 1-.021.015.087.087 0 0 1-.032.004l-.02.001a.26.26 0 0 0-.12.052c-.019.015-.037.035-.041.06-.003.02.005.042.012.062.009.023.017.046.01.068-.008.029-.04.046-.07.047a.218.218 0 0 1-.086-.02l-.16-.063a.344.344 0 0 1-.146-.086.337.337 0 0 1-.02-.028.2.2 0 0 0-.038-.044.173.173 0 0 0-.09-.031 1.051 1.051 0 0 0-.063-.006.662.662 0 0 1-.11-.013c-.056-.013-.112-.045-.135-.098l-.007.036c-.036-.02-.077-.053-.065-.092.006-.022.027-.035.048-.048.022-.014.044-.027.047-.052.002-.023-.015-.042-.032-.061-.018-.02-.036-.04-.03-.064a.075.075 0 0 1 .02-.031l.013-.016c.01-.016.01-.045-.01-.048.006.022-.027.034-.047.024-.01-.004-.018-.012-.027-.019-.008-.007-.017-.015-.027-.02-.025-.01-.055-.002-.08.01l-.021.011a.217.217 0 0 1-.053.023c-.026.006-.059 0-.072-.024.007.012-.104.025-.125.027h-.003a.836.836 0 0 1-.118.004h-.052c-.077 0-.153.01-.23.019a.494.494 0 0 0-.179.046.48.48 0 0 0-.065.046.6.6 0 0 1-.053.038c-.041.026-.095.04-.138.018l-.007-.003a.06.06 0 0 0-.018-.009c-.014-.003-.029.002-.043.008l-.008.003a.343.343 0 0 1-.147.008c-.012-.005-.022-.019-.02-.032-.025-.025-.07-.006-.09.023a.222.222 0 0 0-.023.057.237.237 0 0 1-.015.04c-.026.057-.082.094-.138.12-.012.007-.026.013-.039.019-.043.02-.087.04-.124.07a.032.032 0 0 1 .037.02c.009.024-.008.03-.024.037l-.009.004a.08.08 0 0 0-.04.053.203.203 0 0 0 .002.088l.001.005c.005.027.01.055.007.082a.24.24 0 0 1-.076.122.336.336 0 0 1-.107.082l-.027.01c-.013.004-.027.008-.04.015a.24.24 0 0 0-.058.05l-.13.138a1.11 1.11 0 0 0-.082.095c-.022.03-.041.06-.06.092l-.053.089a.207.207 0 0 1-.054.066c.005-.004.01.02.01.023.001.014-.008.03-.016.04a.34.34 0 0 1-.018.024l-.02.025a.145.145 0 0 0 .002.157.12.12 0 0 1 .042.017c.011.01.02.024.018.04-.002.011-.01.02-.017.03a.104.104 0 0 0-.014.02c-.01.02-.004.044.005.064l.018.03a.164.164 0 0 1 .02.163.334.334 0 0 1-.019.035.24.24 0 0 0-.024.05l-.005.022c-.003.012-.005.024-.01.035a.146.146 0 0 1-.05.049c-.023.017-.047.034-.053.058-.008.037.047.095.087.138l.03.032c-.027.006-.04.04-.032.067a.15.15 0 0 0 .052.065l.225.193c.061.02.086.084.11.147.01.025.02.05.031.072.046.087.136.142.22.193l.247.148c.03.018.063.037.099.034.024-.003.045-.015.066-.027l.008-.005a.596.596 0 0 1 .354-.071l.006.03c.037.03.09.034.136.024.037-.009.072-.026.107-.043l.024-.011c.09-.043.188-.073.287-.09.076-.013.17-.01.21.056.013.021.018.047.024.072.008.036.016.072.045.092.041.029.09.009.14-.012.047-.02.095-.04.137-.02.018.01.031.021.044.032.022.02.042.038.083.03.004 0 .009-.003.013-.005.01-.004.02-.009.029-.002.014.012.005.053 0 .078l-.003.014c-.02.139-.056.275-.106.406a.4.4 0 0 0 .185.299.383.383 0 0 1 .073.06.463.463 0 0 1 .077.132c.05.115.102.243.067.364l.005.1a.14.14 0 0 1 .061.168.272.272 0 0 1-.058.08l-.03.033a4.25 4.25 0 0 1-.065.069.3.3 0 0 1-.033.027.204.204 0 0 0-.046.043c-.018.027-.01.043.003.066l.007.013c.022.044.019.065.002.112a.298.298 0 0 0 .012.229c.02.042.049.078.078.114l.03.04a.8.8 0 0 1 .16.438c.002.045-.004.088-.01.132a.563.563 0 0 0-.01.093c-.004.077.047.14.092.198l.011.015c.127.161.21.356.24.56a.098.098 0 0 1-.054-.002c.04.055.067.12.079.186.072.047.165.035.25.021l.329-.053a.955.955 0 0 0 .277-.074.823.823 0 0 0 .22-.176c.128-.134.243-.28.344-.435.04-.06.077-.14.04-.202a.12.12 0 0 1 .086-.132.246.246 0 0 1 .065-.004c.031 0 .062.001.088-.015.04-.026.05-.08.053-.128.007-.1 0-.198-.008-.297a4.223 4.223 0 0 1-.009-.134c.053-.01.09-.044.126-.078a.394.394 0 0 1 .078-.062.853.853 0 0 0 .235-.173.694.694 0 0 0 .177-.556c-.013-.08-.039-.156-.065-.233a.923.923 0 0 1-.07-.34c.009-.17.111-.324.236-.443.073-.07.154-.13.235-.19.057-.043.113-.085.166-.13.274-.23.477-.544.575-.888.014-.046.024-.1-.003-.14-.031-.046-.099-.052-.151-.033a.443.443 0 0 0-.092.05c-.017.011-.035.023-.053.032-.173.093-.396.037-.55-.086-.154-.122-.254-.298-.35-.47l-.761-1.358a.35.35 0 0 1 .195.17c-.014-.04.04-.078.08-.065.041.012.067.052.088.088l.838 1.398c.023.039.048.08.09.098.043.019.094.007.14-.007a2.563 2.563 0 0 0 1.379-1.002l-.417-.328c-.022-.018-.05-.037-.078-.03-.023.007-.037.027-.05.048l-.01.015c-.07.095-.22.094-.318.028-.098-.065-.154-.176-.203-.283l-.007-.017a.78.78 0 0 0-.178-.28c.303.182.62.341.947.474a1.1 1.1 0 0 0 .377.1c.067.001.136-.008.204-.017.137-.017.273-.035.387.034a.81.81 0 0 1 .113.09c.083.073.164.145.257.104-.09.045-.098.195-.012.248.086.052.217-.023.215-.123.14.503.352.987.626 1.432.119-.087.245-.186.284-.328a.655.655 0 0 0 .015-.169c0-.05 0-.101.011-.15.035-.165.173-.284.303-.39l.303-.247a.776.776 0 0 1 .268-.164c.182-.051.323.063.33.248l.096-.027c.039.032.057.08.075.127l.016.043c.038.103.076.218.032.318.03.025.078 0 .101-.032l.018-.027c.016-.025.032-.05.058-.062.073-.035.143.055.17.132a1.603 1.603 0 0 1 .087.425c.007.065.013.13.027.194.027.123.082.239.135.353.108.227.242.478.483.55a1.089 1.089 0 0 0-.416-.693.626.626 0 0 1-.068-.616l.295.214.148.108.073.008.015.141a.52.52 0 0 0 .366-.357.52.52 0 0 0-.13-.496 1.052 1.052 0 0 0-.087-.076c-.03-.024-.062-.049-.09-.077-.054-.055-.097-.13-.086-.207.012-.085.09-.15.172-.17a.506.506 0 0 1 .253.018c-.04.031-.015.11.035.112l-.022-.089c.27-.088.557-.188.732-.412l.212-.443a.392.392 0 0 0 .055-.204c-.008-.07-.07-.14-.14-.127a.225.225 0 0 0 .074-.088c.014-.037.001-.086-.036-.1l.066-.065a.742.742 0 0 1-.229-.225c-.052-.094-.054-.225.024-.3a.414.414 0 0 1 .024-.02c.023-.02.046-.038.054-.066.017-.064-.071-.115-.133-.091-.062.023-.097.087-.128.146l-.13-.177a.421.421 0 0 0-.018-.02c-.029-.034-.078-.09-.062-.112.008-.012.031-.016.054-.02a.14.14 0 0 0 .045-.012c.056-.037.078-.09.078-.155.025.005.045-.018.058-.039.026-.045.1-.102.143-.036.018.027.017.062.014.095l-.007.107c.024.014.01.06-.018.059.004.017.028.021.042.012a.087.087 0 0 0 .029-.034l.003-.006a.304.304 0 0 1 .092-.1.187.187 0 0 1 .144-.036c.05.01.092.059.085.109l-.001.007-.002.006-.001.007a.088.088 0 0 0-.005.033c.002.017.02.036.035.028-.035.018-.023.083.015.088a.07.07 0 0 0 .032-.003l.018-.003c.044-.004.085.029.104.068a.33.33 0 0 1 .024.13l.01.197c.002.028.008.062.034.072.024.008.044-.01.065-.028.018-.016.037-.032.059-.033.01 0 .02.003.03.006.012.004.026.008.038.004.012-.005.02-.016.027-.027a.214.214 0 0 0 .03-.07.249.249 0 0 0-.005-.096.7.7 0 0 0-.252-.409l-.002-.002c-.028-.02-.058-.045-.06-.079-.003-.039.03-.066.06-.092l.01-.008.006-.006a.27.27 0 0 0 .088-.16c.003-.015.004-.032.005-.048 0-.019.002-.037.005-.056a.48.48 0 0 1 .065-.148c.015-.027.034-.056.064-.062.03-.007.065.03.044.054.043.013.091 0 .129-.026a.355.355 0 0 0 .09-.1 1.07 1.07 0 0 0 .165-.388l.01-.075a.71.71 0 0 1 .015-.1c.02-.08.036-.16.049-.24a.264.264 0 0 0-.036-.262l-.02-.022a.248.248 0 0 1-.037-.05c-.026-.05-.014-.11-.002-.166l.003-.013c.012-.06.015-.13-.03-.172a.061.061 0 0 0-.015-.013c-.011-.01-.023-.019-.03-.032-.006-.014-.004-.03-.002-.046v-.01a.217.217 0 0 0-.101-.198c-.038-.023-.083-.033-.126-.044-.032-.007-.068-.014-.095.004-.023.016-.032.043-.04.07l-.005.013c-.01.03-.032.063-.064.062l.024-.1a.115.115 0 0 0-.09.067l-.046-.04.002.03-.007-.036Zm-11.054 2.578h-.006a.02.02 0 0 1 .006 0ZM8 12.143c-.007.022-.028.034-.048.045l-.01.005c-.022.013-.044.036-.039.06.006.027.04.037.066.033A.233.233 0 0 0 8 12.278c.015-.004.03-.008.046-.009.019 0 .038.006.057.012.028.009.055.017.08.005l.01-.006c.013-.007.025-.014.037-.007.011.007.01.025.002.036-.006.008-.016.013-.025.019l-.008.005c-.012.007-.023.017-.023.031-.001.02.023.033.044.034.038.001.072-.02.105-.042.033-.021.066-.043.104-.042-.01.019-.022.04-.02.061.003.022.025.043.045.034l.006-.002c.004-.002.007-.004.012-.004.009 0 .014.008.018.017a.068.068 0 0 0 .008.012c.016.019.049.007.06-.015.01-.021.005-.046.001-.07v-.001c-.004-.024-.006-.05.008-.07.004-.006.009-.01.014-.015.01-.01.02-.019.02-.032 0-.016-.018-.028-.034-.029a.097.097 0 0 0-.047.015.133.133 0 0 1 .065-.1.085.085 0 0 0-.097.014c0-.015.01-.028.02-.04.012-.014.023-.027.02-.043-.004-.025-.036-.032-.061-.033l-.12-.006c-.01 0-.02-.001-.026-.009-.013-.015.007-.036.024-.045.017-.01.039-.026.03-.044l-.115.011.124-.107c.007-.006.015-.015.012-.024-.004-.011-.02-.01-.03-.007a.356.356 0 0 0-.188.138.705.705 0 0 0-.037.061.622.622 0 0 1-.032.056.194.194 0 0 1-.102.085L8 12.144ZM6.77 8.256l-.025-.012-.001.001-.095-.02c-.011-.003-.024-.006-.03-.016a.04.04 0 0 1-.005-.021v-.005c0-.01 0-.021-.005-.031-.005-.011-.018-.02-.03-.016a.037.037 0 0 0-.006.004l-.01.004c-.005 0-.01-.003-.016-.007a.047.047 0 0 0-.01-.005c-.008-.003-.016-.001-.024 0-.008.002-.017.004-.024.001-.012-.004-.018-.017-.02-.029l-.002-.01a.08.08 0 0 0-.007-.026l-.005-.008-.007-.014a.045.045 0 0 1 0-.02v-.012a.073.073 0 0 0-.004-.025.13.13 0 0 1-.004-.019c-.001-.015.005-.033.02-.035.007 0 .013.002.02.004l.021.01.03.015a.09.09 0 0 1 .02.017l.002.003c.005.007.011.014.02.015a.037.037 0 0 0 .019-.007c.007-.004.014-.008.022-.005.002 0 .004.002.005.003l.006.004c.004.001.01 0 .01-.004a.307.307 0 0 0-.106-.087.172.172 0 0 0-.043-.015c-.03-.006-.035-.039-.04-.067a.054.054 0 0 1 .05-.063c-.001-.04.02-.077.043-.11a.89.89 0 0 1 .128-.149l.003-.003.064-.063a.443.443 0 0 1 .151-.11.224.224 0 0 1 .211.034l-.053.053a.354.354 0 0 0-.18.172.708.708 0 0 0-.03.08l-.023.068a.22.22 0 0 0-.016.1.221.221 0 0 0 .01.036.2.2 0 0 1 .01.04c.003.027-.011.059-.038.062l.01.021.022-.01.006.051.04-.076a.041.041 0 0 1 .027-.045.309.309 0 0 1-.045-.17l.042.004c-.009-.009.002-.024.014-.025.008-.001.015.001.023.003a.11.11 0 0 0 .013.003c.021.004.047-.011.047-.033.001-.022-.033-.038-.045-.02a.19.19 0 0 1 .002-.123c.008-.012.028-.009.038 0 .007.006.011.013.016.02l.011.016c.01.01.027.017.039.008L6.97 7.52h.076c-.014-.016-.009-.044.008-.056a.054.054 0 0 1 .06 0c.014.01.025.024.028.04-.003-.028.017-.057.043-.072a.224.224 0 0 1 .091-.022.145.145 0 0 1 .056.001c.018.005.035.02.037.039.001.016-.008.03-.016.044l-.005.008c-.01.017-.016.04-.002.054a.145.145 0 0 1-.032.15c.008.023-.014.045-.033.06-.019.016-.039.041-.026.062l.1-.083.01.036a.04.04 0 0 0 .035-.01.344.344 0 0 1-.03.11l.048-.09c.003-.005.005-.01.01-.013.01-.005.022.005.027.015l.004.011a.055.055 0 0 0 .009.02c.007.01.025.01.027 0-.021-.007-.03-.036-.02-.056.009-.02.031-.032.053-.035.05-.006.096.024.134.056.022.018.044.04.05.068.005.024-.01.054-.033.059.034.001.063.037.055.071l-.053.02A.072.072 0 0 0 7.782 8c.013.029-.003.064-.017.095l-.011.026a.106.106 0 0 0 .097-.098c.039.03.08.065.082.113a.083.083 0 0 1-.092.08c-.005.02.023.03.04.022a.096.096 0 0 0 .024-.018.083.083 0 0 1 .021-.017c.017-.01.045-.003.044.016 0 .008-.006.014-.01.02l-.076.087A.45.45 0 0 1 8 8.25v.023a.12.12 0 0 1 .106.11l-.155.036c.022-.005.048-.01.068.001.021.012.027.048.006.057a.132.132 0 0 0 .069-.065c.015.022.03.044.031.07.002.026-.018.055-.044.053a.07.07 0 0 1-.015-.004.05.05 0 0 0-.02-.003c-.011 0-.02.018-.01.023l.083.045c.014.007.03.018.029.034-.002.017-.024.025-.04.02a.086.086 0 0 1-.029-.014l-.017-.01c-.015-.007-.036-.009-.047.004l-.003.025c.018-.007.036.014.034.032-.002.02-.015.034-.028.048-.026 0-.048.03-.04.054l.045-.005a.05.05 0 0 0 .029.043.177.177 0 0 0 .164.086l-.05.053.111.028-.08.067a.23.23 0 0 1 .235.17c-.015.009-.034.005-.047-.006a.045.045 0 0 1-.007.03.047.047 0 0 1-.058.014.035.035 0 0 0 .03.028c-.006.022-.035.032-.055.021a.058.058 0 0 1-.02.046l-.015-.02-.01.043-.052-.01-.014-.023-.025.131c-.003.014-.007.03-.02.036-.015.009-.034-.001-.047-.013a.173.173 0 0 1 .002-.245.137.137 0 0 1-.053.031c-.02.005-.045-.002-.054-.02l.014-.006-.09-.115c.006.02.011.042.003.062-.007.017-.03.03-.045.022a.09.09 0 0 1 .038.062.213.213 0 0 1-.147-.073.27.27 0 0 1 .04.098c.034-.006.066.025.074.06a.21.21 0 0 1-.01.103l.112.046a.51.51 0 0 0 .031.248c.004.01-.03.007-.052.005-.008 0-.014-.002-.015-.001-.02.013-.01.062-.004.08-.013-.007-.026.01-.024.025 0 .006.003.012.005.019a.068.068 0 0 1 .006.023c0 .014-.019.029-.028.018-.003-.003-.004-.008-.005-.012a.268.268 0 0 0-.033-.084c-.05-.085-.143-.134-.23-.18l.03.107c.022-.006.043.016.057.035l.056.076c.019.025.038.052.038.082 0 .031-.028.064-.058.055-.016-.005-.026-.02-.036-.035l-.013-.019c-.018-.021-.044-.032-.07-.043l-.014-.006a.934.934 0 0 1-.284-.227l.07-.009a.453.453 0 0 1-.046-.071l-.017.013a.931.931 0 0 1-.057-.154c-.017.014-.047.008-.056-.012a.082.082 0 0 1-.03.047c.003-.016-.013-.03-.029-.033-.01-.002-.019-.002-.029-.002l-.02-.001c-.015-.002-.031-.01-.037-.023.004.015-.009.03-.024.036-.012.004-.025.003-.038.003h-.013c-.017-.001-.036.002-.046.015a.347.347 0 0 0-.034-.032c-.026-.023-.051-.045-.057-.077a.074.074 0 0 1 .028-.07.074.074 0 0 1 .076-.007l.009-.015a.074.074 0 0 1-.005-.027c0-.011.007-.023.018-.026.008-.003.016 0 .024.004a.113.113 0 0 1 .012.008.159.159 0 0 0 .042.02l.053.019a.1.1 0 0 0 .007.002c.005.001.01.002.014.005a.032.032 0 0 1 .007.006.034.034 0 0 0 .007.007c.006.003.013.005.019.001.004-.003.006-.008.009-.013.002-.005.004-.01.008-.012.008-.005.018-.002.026.003l.003.002c.007.005.014.01.022.009.009 0 .017-.013.01-.02.008-.005.017-.001.027.002a.041.041 0 0 0 .024.003c.013-.003.019-.02.015-.032a.065.065 0 0 0-.018-.03l-.003-.004c-.008-.01-.016-.021-.017-.034 0-.021.018-.037.034-.05l.059-.046a.08.08 0 0 1 .036-.019h.008c.008-.001.015-.001.02-.007.006-.004.006-.011.007-.019 0-.003 0-.007.002-.01.004-.015.019-.025.034-.029l.021-.004a.155.155 0 0 0 .025-.005c.015-.005.03-.016.031-.032 0-.006 0-.012-.002-.017v-.004a.172.172 0 0 1-.003-.053l.003-.014c.003-.013.007-.027.001-.035v-.001L7.56 8.85l-.007-.009c-.002-.007.001-.014.006-.02l.003-.003.003-.004a.063.063 0 0 0 .008-.01c.004-.005.006-.014.001-.02-.005-.005-.016-.003-.016.004-.006 0-.009-.007-.01-.013v-.002c-.001-.005-.002-.01-.006-.014-.005-.005-.015-.003-.023-.002-.01.002-.02 0-.022-.008-.002-.008.006-.014.013-.017.008-.004.016-.008.016-.016 0-.006-.005-.01-.01-.014v-.001c-.005-.005-.01-.012-.006-.017l.001-.001.001-.001.003-.003c.001-.004-.002-.008-.006-.01l-.011.002-.063.018c.006.012-.003.027-.015.028a.475.475 0 0 1-.013-.048v-.012c.004-.006.014-.006.021-.005.009 0 .019-.003.018-.01 0-.005-.004-.007-.008-.01-.003-.002-.007-.004-.008-.008-.001-.006.006-.011.011-.015.006-.004.012-.011.007-.016a.066.066 0 0 1-.07.004c.003.005 0 .013-.006.016a.035.035 0 0 1-.018.004.04.04 0 0 0-.019.003l-.006.004a.024.024 0 0 1-.01.006c-.01.001-.018-.009-.018-.018-.001-.013.008-.025.019-.032.011-.007.025-.009.037-.011h.007c.015-.002.042-.005.035-.02-.001-.004-.004-.006-.007-.009a.06.06 0 0 1-.004-.004c-.004-.005-.007-.012-.003-.016-.01.002-.02-.005-.026-.014a.078.078 0 0 1-.009-.021l-.002-.008a.055.055 0 0 0-.019-.026h-.002c-.005-.003-.01-.005-.01-.01 0-.006.007-.01.013-.01.006-.001.013-.002.016-.007.003-.006-.004-.014-.01-.016l-.01-.001c-.005 0-.009 0-.013-.002-.011-.005-.016-.018-.02-.03-.003-.006-.005-.015 0-.021a.016.016 0 0 1 .008-.006l.008-.005c.006-.006.005-.014.005-.022 0-.007 0-.014.003-.02l.006-.007c.007-.007.016-.015.004-.019h-.012a.044.044 0 0 1-.031-.01.133.133 0 0 1-.017-.015.091.091 0 0 0-.017-.017l-.003-.002c-.009-.007-.018-.014-.016-.024 0-.004.004-.008.007-.011.004-.005.008-.009.007-.015s-.01-.01-.016-.01a.043.043 0 0 0-.016.008l-.003.002a.023.023 0 0 1-.02.005.377.377 0 0 0 .027.07l.001.003c.005.01.01.02.01.031a.056.056 0 0 1-.017.038c-.012.012-.028.022-.045.02a.084.084 0 0 1-.035-.013l-.072-.04a.035.035 0 0 0-.016-.006c-.005 0-.012.004-.012.01 0 .003 0 .006.002.008.011.02.03.036.052.042l.008.002a.064.064 0 0 1 .02.008c.008.006.014.018.008.026-.006.009-.02.008-.029.002l-.01-.007a.048.048 0 0 0-.017-.01.06.06 0 0 0-.007-.001l-.01-.003c-.007-.004-.011-.011-.015-.018l-.003-.005a.143.143 0 0 0-.038-.037l-.097-.073.065.063c.004.004.008.008.007.013 0 .006-.006.01-.012.01a.035.035 0 0 1-.017-.005l-.087-.045c.022.015.045.033.052.058l-.037.007-.012-.022c-.005-.01-.008-.017-.02-.023l-.066-.035Zm.493.682c.022-.006.042-.026.04-.048l.001.001c-.004-.009.003-.02.011-.027a.116.116 0 0 1 .01-.007.06.06 0 0 0 .02-.014c.009-.013.006-.03.003-.046a.158.158 0 0 1-.003-.022v-.01a.05.05 0 0 0-.003-.025c-.009-.016-.03-.019-.047-.017-.051.006-.103.037-.115.087l-.003.017a.098.098 0 0 1-.008.032.11.11 0 0 1-.008.013c-.007.01-.014.019-.013.03 0 .01.008.02.017.024.01.006.02.008.03.01a.149.149 0 0 0 .068.002Zm.043-.044a.014.014 0 0 1-.002-.003l.002.003Zm-1.196-1.3.079.025c.02.006.049.01.06-.009a.046.046 0 0 0 .003-.026c0-.01 0-.02.004-.027.006-.01.018-.014.03-.018a.064.064 0 0 0 .03-.014c.008-.01.008-.024.008-.037a.24.24 0 0 1 0-.01c.002-.017.012-.037.028-.035.01.002.015.009.02.016l.007.007a.06.06 0 0 0 .06.013.147.147 0 0 0 .056-.033l.038-.037.046-.041.034-.027c.043-.033.086-.066.102-.116a.075.075 0 0 0 .001-.048.043.043 0 0 0-.036-.03c-.008 0-.016.003-.024.006a.08.08 0 0 1-.02.005c-.02.002-.035-.01-.051-.022a.25.25 0 0 0-.018-.012c-.035-.021-.078-.021-.119-.02a.14.14 0 0 0-.05.006c-.016.007-.03.02-.032.037a.07.07 0 0 0 .002.024c.002.005.003.01.003.016.001.013-.006.03-.02.03a.033.033 0 0 1-.013-.004c-.004-.001-.007-.003-.011-.003-.01-.002-.02.005-.029.012a.439.439 0 0 0-.111.192.572.572 0 0 1-.083.165l.006.014ZM7.391 7.5a.049.049 0 0 0 0 .05l.024.025c.005.013.01.027.003.038l-.003.004c-.002.003-.004.006-.004.01s.003.006.006.01a.031.031 0 0 1 .004.005c.003.005.003.01.002.017v.012c.002.01.01.017.019.02.01.002.019.002.028 0a.22.22 0 0 0 .058-.016h.002c.01-.005.019-.009.028-.007.004 0 .008.002.011.004l.01.004h.017l.01-.001c.014 0 .027.007.04.014.013.007.027.015.042.013.007 0 .014-.004.016-.01.004-.01-.002-.018-.007-.026l-.002-.002a.087.087 0 0 1-.014-.047c0-.008 0-.017.002-.025l.002-.018c0-.015-.002-.03-.012-.041l-.009-.008a.054.054 0 0 1-.012-.01.055.055 0 0 1-.007-.018.044.044 0 0 0-.01-.02c-.007-.007-.018-.009-.029-.008l-.01.002c-.007 0-.014.002-.02.001a.09.09 0 0 1-.027-.007c-.01-.004-.018-.008-.028-.008h-.013c-.008.001-.016.002-.023 0a.05.05 0 0 1-.017-.015c-.006-.007-.012-.014-.021-.015-.011 0-.02.009-.025.019a.12.12 0 0 0-.005.013l-.007.017-.01.013-.009.011Zm-2.57-1.45c-.011.01-.028.017-.04.008-.01-.008-.01-.02-.009-.032 0-.01.001-.02-.005-.027-.007-.01-.017-.006-.027-.002L4.735 6c-.018.007-.04.013-.056 0-.013-.01-.014-.022-.014-.034a.05.05 0 0 0-.003-.017c.003.009.016.009.022.002.006-.005.007-.014.009-.022v-.003c.002-.009.005-.019.014-.022a.03.03 0 0 1 .01-.002l.011-.001c.008-.003.012-.011.016-.02l.008-.014c.01-.012.028-.013.045-.013h.008a.277.277 0 0 0 .088-.024h.002a.784.784 0 0 0 .103-.046l.041-.026c.018-.011.036-.023.055-.033a.553.553 0 0 1 .144-.044c.03-.006.064-.01.09.007.005.003.009.008.013.012l.015.012c.01.007.025.01.034.002.009-.007.009-.018.009-.03 0-.01 0-.021.006-.03.012-.016.04-.007.053.008a.08.08 0 0 1 .016.074.08.08 0 0 1-.052.054.16.16 0 0 1-.018.004c-.008.002-.016.003-.023.006-.013.005-.025.017-.024.031 0 .007.004.013.007.018l.002.003c.004.006.007.014.005.021-.002.008-.01.013-.017.01l-.005-.007a.019.019 0 0 0-.005-.006c-.007-.005-.016.001-.019.009-.002.005-.001.01-.001.016v.008c-.003.033-.038.051-.07.058l-.016.004c-.027.005-.055.01-.073.03a.122.122 0 0 0-.014.021l-.01.016c-.008.011-.022.021-.036.018-.017-.004-.025-.024-.022-.04a.099.099 0 0 1 .026-.044l.045-.053a.122.122 0 0 0 .022-.032c.005-.013.006-.027-.002-.038-.007-.011-.023-.016-.034-.008-.01.007-.01.02-.012.033 0 .012-.001.025-.01.032a.046.046 0 0 1-.023.008c-.01.002-.02.003-.025.011-.004.005-.004.012-.004.019 0 .004 0 .008-.002.012-.003.013-.014.021-.026.03-.012.008-.023.016-.027.03v.012c-.002.01-.002.02-.01.023-.013.006-.024-.011-.024-.025l.001-.01c.001-.01.002-.021-.004-.03a.161.161 0 0 0-.026.05.083.083 0 0 1-.028.039l-.007.006a.073.073 0 0 1-.022.017c-.01.003-.02.003-.027-.004-.007-.007-.007-.019-.004-.028l.004-.012.005-.016c.002-.007 0-.016-.006-.018-.005-.002-.01 0-.014.004a.095.095 0 0 0-.017.019c-.004.005-.007.01-.012.014Zm.317.21-.096-.003c-.011 0-.024-.003-.027-.013-.003-.007.002-.015.007-.02a.12.12 0 0 1 .121-.038l.005.001a.055.055 0 0 0 .02.004c.008 0 .017-.006.017-.014.001-.01-.012-.018-.022-.018h-.01a.049.049 0 0 1-.022-.001c-.017-.007-.021-.03-.012-.046.009-.015.026-.023.043-.028a.131.131 0 0 1 .091.006.027.027 0 0 1-.002-.029c.008-.013.025-.018.04-.018.009 0 .017.001.026.003l.02.002h.005c.017.001.037.002.042.018.005.014-.008.024-.02.035-.013.01-.026.02-.025.034a.064.064 0 0 1 .08.022c.016.025.012.06.007.09-.003.019-.009.041-.027.048.022 0 .04.027.03.048a.07.07 0 0 1-.006.011l-.007.012c-.004.008-.003.02.005.023.006.003.013 0 .02-.003.005-.003.011-.006.017-.004.006 0 .01.006.015.012l.004.005c.011.013.03.017.047.02a.112.112 0 0 0 .048.003c.016-.004.03-.017.03-.033 0-.013-.009-.024-.018-.035-.01-.01-.018-.02-.019-.033-.001-.018.016-.034.034-.037a.115.115 0 0 1 .053.007c.013-.019.001-.043-.012-.062-.012-.018-.025-.042-.014-.06a.057.057 0 0 1 .015-.015l.08-.063c.013-.011.03-.022.046-.017.018.007.023.03.018.05a.144.144 0 0 1-.012.027.169.169 0 0 0-.011.024.17.17 0 0 0-.007.04c-.001.01-.002.021-.005.031-.006.024-.024.047-.048.045l.053.006a.156.156 0 0 1-.067.08c.007.016.03.008.042-.004.011-.012.026-.028.041-.02.017.008.01.033 0 .049.016.001.029-.014.036-.03l.002-.004c.006-.014.012-.028.025-.034.02-.01.047.007.054.029.007.022.001.046-.006.069-.01.032-.026.07-.06.077a.434.434 0 0 1-.238.132c0-.015.004-.029.014-.04a.089.089 0 0 1-.038.024c-.015.003-.033-.004-.036-.019a.048.048 0 0 1-.001-.013c0-.007 0-.014-.004-.019-.007-.007-.018-.005-.026 0a.089.089 0 0 0-.01.008.068.068 0 0 1-.012.01c-.014.007-.03.003-.046 0a.12.12 0 0 0-.031-.005c-.021 0-.039.013-.056.025a.132.132 0 0 1-.032.02.303.303 0 0 1-.173-.002.142.142 0 0 1-.082-.067c-.007-.015-.011-.034-.002-.048.01-.017.033-.021.053-.022a.579.579 0 0 1 .192.022.05.05 0 0 0 .026.003c.008-.002.015-.012.012-.02-.003-.007-.011-.01-.02-.011l-.181-.036.033-.03c-.033.024-.08.025-.124.024h-.037c-.008-.001-.017-.002-.023-.007-.005-.005-.007-.012-.008-.02a.077.077 0 0 0-.003-.01c-.006-.017-.024-.025-.042-.034-.019-.01-.037-.02-.04-.039a.032.032 0 0 1 .038-.017c-.009-.013 0-.031.013-.038.013-.007.03-.006.044-.005a.119.119 0 0 1 .05.017c.015.007.03.015.046.016a.075.075 0 0 0 .046-.015c.002-.002.025-.033.014-.034Zm5.083-.78c.015-.033.036-.069.07-.08l.002.02.06.111c.014.038.076.028.096-.007.017-.032.013-.069.009-.105l-.002-.015c-.004-.04 0-.088.034-.11.043-.03.106.006.126.055a.299.299 0 0 1 .015.117v.04c.002.07.053.157.118.133.061-.022.052-.111.025-.17-.026-.06-.056-.137-.008-.181l.278.153a.278.278 0 0 0-.242-.29.248.248 0 0 1 .338.008l.03.036a.25.25 0 0 0 .062.063c.047.029.106.025.161.02l.66-.064-.123.18c.07-.02.146-.04.215-.015.068.025.115.117.07.174-.03.037-.083.043-.13.046l-.74.052.533.093-.05.079.334-.057-.378.413.595-.296c.105-.053.256-.094.319.005.04.063.01.152-.045.202a.481.481 0 0 1-.203.09.197.197 0 0 1-.22.163l.127.03-.246.594a.217.217 0 0 0 .106.225l.007.068a.247.247 0 0 1-.217-.035c-.049-.002-.077.061-.063.108.01.036.037.065.063.094a.879.879 0 0 1 .021.024c.032.037.058.087.04.133-.018.045-.1.053-.109.005l.009.118c.03-.036.099 0 .1.047 0 .047-.047.084-.095.09a.294.294 0 0 1-.138-.029l.16.134c-.018.118-.18.184-.275.112a.149.149 0 0 1 .011.156l-.266-.135.296.367c.025.032.051.065.056.105.012.101-.128.164-.22.12-.093-.043-.142-.143-.184-.236l-.091.321a.924.924 0 0 1 .413.06.779.779 0 0 1-.89.228c.023.255-.248.49-.498.432a.257.257 0 0 1-.274.14l-.01.084-.095.018.108.093a2.067 2.067 0 0 0-.392.67.493.493 0 0 0-.412-.072 14.02 14.02 0 0 1-.202-1.068.447.447 0 0 1 0-.194c.025-.085.094-.142.163-.2.032-.027.064-.054.092-.084a.506.506 0 0 0 .06-.596.305.305 0 0 1-.266.02.554.554 0 0 0 .204-.377c.02-.146 0-.294-.02-.44a.606.606 0 0 0-.064-.234c-.117-.194-.356-.188-.553-.183h-.017c-.073.003-.15-.004-.153-.097-.002-.054.02-.062.044-.07.016-.007.034-.013.046-.035.017-.03-.008-.094-.05-.066l-.088-.028c.003-.046.051-.079.097-.081a.29.29 0 0 1 .132.036l.022-.068c.053.046.149.029.183-.034a.247.247 0 0 0-.296-.05l-.073-.211a1.049 1.049 0 0 1 .454-.161.589.589 0 0 0 .141-.03c.058-.022.11-.068.12-.129l.136-.16a.52.52 0 0 0-.285.062c.006-.1.113-.156.205-.194.052-.02.13-.029.149.019a.159.159 0 0 1-.003-.096c.01-.033.044-.061.079-.057.035.005.06.05.039.079a.42.42 0 0 0 .196-.247c-.007.03-.014.064 0 .093.013.028.055.044.077.02.012-.012.012-.031.012-.05V5.49c.006-.074.07-.134.14-.158a.57.57 0 0 1 .222-.014.665.665 0 0 0-.132.177c-.011.021-.02.045-.012.067.014.034.065.036.094.013.026-.02.038-.05.05-.08l.006-.013Zm14.872 8.118c.01.002.021-.01.015-.02l.049.007a.083.083 0 0 1 .018-.033c.009-.01.024-.013.035-.006.019.014.004.043-.01.062a.167.167 0 0 0-.04.103c0 .037.03.076.067.077.037.001.067-.033.078-.069a.3.3 0 0 0 .008-.073l.001-.021v-.01l.002-.007a.29.29 0 0 1 .242-.25c-.008.018-.017.037-.013.056.005.02.028.036.044.025.02.036.078.032.106.002.028-.03.034-.074.039-.115.024-.026.063-.028.098-.03l.009-.001a.417.417 0 0 0 .219-.075c-.011.015.004.038.022.038.018.001.033-.014.039-.031.006-.017.003-.036.001-.054l-.043-.353a.44.44 0 0 1-.002-.136.524.524 0 0 1 .014-.05c.013-.044.027-.088.007-.127-.01-.018-.025-.032-.04-.046-.01-.009-.021-.018-.03-.029-.015-.02-.024-.042-.034-.065a.43.43 0 0 0-.016-.037c-.017-.034-.05-.067-.087-.062.02.02.003.053-.011.078a.225.225 0 0 0-.026.082c-.006.054.008.107.021.16a.447.447 0 0 1 .021.161.227.227 0 0 1-.139.181c-.018.007-.043.01-.054-.006l-.007-.018c-.003-.011-.006-.022-.016-.023-.01 0-.018.01-.023.02a.48.48 0 0 0-.052.177v.014c0 .024 0 .05-.016.068-.017.02-.046.023-.072.025h-.006a.45.45 0 0 0-.247.11.895.895 0 0 0-.177.248c-.005.01-.01.02-.01.03 0 .01.006.022.016.024Zm.69-1.48c.004.02.025.025.045.03.021.007.042.012.046.032.004.018-.012.034-.028.041a.197.197 0 0 1-.019.007.11.11 0 0 0-.031.014l-.003.003-.005.003c-.007.007-.015.013-.024.013-.013-.001-.02-.014-.026-.025l-.081-.167c.008-.012.023-.017.037-.022l.012-.004c.018-.007.036-.026.026-.042l-.007-.009a.02.02 0 0 1-.008-.012c-.003-.012.011-.02.023-.02h.016a.046.046 0 0 0 .02.002c.015-.001.028-.014.034-.028a.108.108 0 0 0 .006-.046.4.4 0 0 0-.033-.149c-.01-.023-.021-.05-.006-.07.01-.014.032-.017.05-.01a.131.131 0 0 1 .041.03l.002.001a.472.472 0 0 0 .137.096.204.204 0 0 0 .164.002h.001c.018-.01.041-.02.056-.007.013.012.007.034.002.05-.005.018-.005.042.012.048h.012l.008.001c.026.003.037.038.026.062-.01.023-.034.038-.055.051l-.003.001c-.022.014-.045.031-.052.057-.003.01-.003.022-.003.034 0 .021 0 .041-.016.052-.013.01-.03.007-.044-.001a.12.12 0 0 1-.032-.034c.01.02-.016.044-.039.041-.023-.003-.04-.02-.056-.037-.017-.017-.035-.035-.058-.036a.095.095 0 0 0-.043.011.106.106 0 0 1-.04.011.108.108 0 0 1-.022-.003c-.008-.001-.016-.003-.024-.002-.016 0-.032.015-.026.03l.007.001Zm-.488-1.796c.01.024.029.043.047.061l.038.032c0 .09.037.178.08.257a.959.959 0 0 0 .039.07c.032.056.064.111.087.171.039.1.05.208.062.316.008.07.016.14.03.207a.158.158 0 0 0 .026.064c.014.018.037.031.06.025.029-.007.043-.039.052-.067.009.015.017.03.03.04.013.01.031.016.046.009.03-.012.027-.055.012-.083a.338.338 0 0 0-.067-.08.347.347 0 0 1-.055-.06.219.219 0 0 1-.034-.175c.007-.027.025-.057.053-.056.007 0 .015.002.023.005.014.004.028.008.038-.002.012-.013.001-.034-.01-.048-.153-.193-.314-.396-.355-.638.012.014.038-.005.035-.024-.003-.018-.02-.031-.034-.042a.49.49 0 0 1-.146-.18c-.005-.01-.012-.022-.023-.025-.017-.005-.032.014-.031.031a.08.08 0 0 0 .014.039l.005.01c.007.014.013.034.004.048a.053.053 0 0 1-.011.014.084.084 0 0 0-.008.007c-.017.02-.017.05-.007.074Zm-1.878 7.251a.014.014 0 0 1 .002.012.058.058 0 0 1 .017-.012h-.019Zm-.04.026c.01.007.026.004.035-.003-.018.031-.01.08.018.108.035.036.089.047.139.055l.42.073c.03.006.068.007.082-.02.008-.016.003-.033-.001-.05a.167.167 0 0 1-.005-.026c-.004-.043.025-.075.055-.108a.268.268 0 0 0 .051-.07c.007-.017.011-.036.015-.055.008-.036.015-.071.045-.088a.155.155 0 0 1 .042-.014c.026-.006.05-.011.057-.034.009-.029-.02-.051-.046-.07l-.01-.008a.166.166 0 0 1-.01-.242.313.313 0 0 1 .042-.03l.038-.028c.025-.022.044-.055.034-.087-.01-.036-.048-.047-.087-.059-.033-.01-.068-.02-.086-.046-.009-.012-.013-.027-.018-.041-.007-.022-.013-.043-.032-.054-.023-.014-.053-.005-.073.013-.016.014-.026.032-.037.05l-.008.014a.807.807 0 0 1-.187.19l-.282.231c-.034.028-.08.057-.118.034a.121.121 0 0 1-.011-.008c-.008-.006-.015-.012-.025-.013-.03-.005-.043.036-.044.066l-.01.257c-.001.022 0 .049.017.063Zm1.58-.002c-.04-.02-.069-.075-.041-.111l.01.024a.607.607 0 0 1 .4.005c-.045.004-.073.06-.057.103.016.043.063.068.108.071a.304.304 0 0 0 .132-.028l.018-.007c.037-.015.073-.03.112-.035.07-.01.139.013.206.035.3.099.613.207.826.44-.031-.013-.054.034-.048.067.015.079.086.133.154.174l.014.009c.064.039.132.08.163.147a.803.803 0 0 1-.314-.087c-.034-.02-.066-.047-.097-.073-.037-.03-.073-.06-.115-.083-.078-.041-.19-.043-.238.031.02.01.04.02.052.037.013.017.015.044 0 .058-.015.013-.038.01-.057.008l-.48-.078c-.016-.003-.034-.006-.045-.018-.023-.024-.003-.068.029-.08.03-.011.065-.002.097.008-.013-.091-.031-.192-.103-.25a.21.21 0 0 0-.077-.039c-.024-.007-.049-.01-.074-.013a.28.28 0 0 1-.12-.034.302.302 0 0 1-.037-.03.178.178 0 0 0-.059-.04.2.2 0 0 0-.094 0c-.037.007-.074.013-.105-.006a.08.08 0 0 1-.024-.11.082.082 0 0 1 .112-.017c-.02-.04-.07-.055-.115-.058l-.031-.002c-.035-.002-.07-.003-.102-.018Zm-2.872-.567a.299.299 0 0 1-.162-.125c-.013-.022-.024-.05-.009-.07.015-.02.044-.02.066-.011a.28.28 0 0 1 .024.01.11.11 0 0 0 .042.017c.017.003.033 0 .05-.003a.184.184 0 0 1 .04-.004c.046.002.083.035.116.066l.085.082.174.166.143.136.11.107a.257.257 0 0 1 .07.088.344.344 0 0 1 .007.022c.006.02.012.04.028.053.01.007.022.01.034.014.017.005.034.01.042.024.008.012.006.028.005.043-.002.018-.004.035.009.047.007.007.017.008.027.01a.094.094 0 0 1 .019.005c.028.012.036.048.037.079a.995.995 0 0 1-.008.204.143.143 0 0 1-.018.059c-.011.017-.032.03-.052.026-.017-.004-.03-.017-.042-.03-.014-.015-.027-.03-.047-.03-.014 0-.027.01-.04.018a.077.077 0 0 1-.036.018c-.026.002-.047-.02-.056-.045a.249.249 0 0 1-.01-.033.134.134 0 0 0-.013-.04.203.203 0 0 0-.063-.068l-.013-.01a1.055 1.055 0 0 1-.239-.324l-.27-.487-.05-.014Zm.934 1.08c-.026.018-.06.031-.087.018l-.015.027c-.017.01-.017.034-.006.05.012.014.031.02.05.02a.233.233 0 0 0 .037-.004.42.42 0 0 1 .14.008l.335.062.32.06c.022.004.052.006.062-.015.005-.01.003-.022.002-.033l-.002-.02c0-.005 0-.01.002-.015.002-.01.004-.021-.001-.03-.008-.014-.025-.016-.04-.018l-.006-.001a.295.295 0 0 1-.13-.067l-.014-.01c-.044-.034-.098-.064-.152-.053.009.012.002.03-.01.04a.09.09 0 0 1-.044.012c-.055.005-.116.01-.16-.025l-.007-.007c-.008-.007-.017-.015-.028-.017a.063.063 0 0 0-.022.001.125.125 0 0 1-.008.002.154.154 0 0 1-.067-.014.164.164 0 0 0-.068-.013.155.155 0 0 0-.068.033.353.353 0 0 1-.013.01Z" fill="#42A22B"/></mask><g mask="url(#world__a)"><ellipse cx="13.949" cy="13.766" rx="12.207" ry="12.155" fill="#3BD399"/></g></svg>